<svg width="250" height="250" viewBox="0 0 250 250" fill="none" xmlns="http://www.w3.org/2000/svg">
<rect width="250" height="250" rx="125" fill="#805487"/>
<path d="M77.4167 50C72.2081 50 68 54.1895 68 59.375C68 64.5605 72.2081 68.75 77.4167 68.75V71.9727C77.4167 84.3945 82.3898 96.3184 91.218 105.107L111.199 125L91.218 144.893C82.3898 153.682 77.4167 165.605 77.4167 178.027V181.25C72.2081 181.25 68 185.439 68 190.625C68 195.811 72.2081 200 77.4167 200H171.583C176.792 200 181 195.811 181 190.625C181 185.439 176.792 181.25 171.583 181.25V178.027C171.583 165.605 166.61 153.682 157.782 144.893L137.801 125L157.782 105.107C166.61 96.3184 171.583 84.3945 171.583 71.9727V68.75C176.792 68.75 181 64.5605 181 59.375C181 54.1895 176.792 50 171.583 50H77.4167ZM96.25 71.9727V68.75H152.75V71.9727C152.75 77.5391 151.102 82.9297 148.042 87.5H100.958C97.9273 82.9297 96.25 77.5391 96.25 71.9727ZM100.958 162.5C101.988 160.947 103.195 159.482 104.519 158.135L124.5 138.242L144.481 158.135C145.835 159.482 147.012 160.947 148.071 162.5H100.958Z" fill="white" fill-opacity="0.5"/>
</svg>
