<svg width="250" height="250" viewBox="0 0 250 250" fill="none" xmlns="http://www.w3.org/2000/svg">
<path d="M218.75 62.5H73.4378L61.8753 27.9166C61.1765 25.8477 59.8451 24.0506 58.0694 22.7796C56.2936 21.5085 54.1633 20.8276 51.9795 20.8333H20.7295V41.6666H44.4795L81.3545 152.396C82.7343 156.553 85.3895 160.17 88.9425 162.732C92.4956 165.294 96.7658 166.671 101.146 166.667H180.209C184.448 166.659 188.583 165.359 192.064 162.939C195.545 160.52 198.204 157.096 199.688 153.125L228.438 76.5625C229.584 73.3333 229.167 69.7916 227.292 66.9791C226.335 65.5993 225.058 64.4713 223.571 63.6914C222.083 62.9115 220.43 62.5027 218.75 62.5ZM180.313 145.833H101.25L80.417 83.3333H203.75L180.313 145.833ZM104.167 187.5C98.6416 187.5 93.3426 189.695 89.4356 193.602C85.5286 197.509 83.3337 202.808 83.3337 208.333C83.3337 213.859 85.5286 219.158 89.4356 223.065C93.3426 226.972 98.6416 229.167 104.167 229.167C109.692 229.167 114.991 226.972 118.898 223.065C122.805 219.158 125 213.859 125 208.333C125 202.808 122.805 197.509 118.898 193.602C114.991 189.695 109.692 187.5 104.167 187.5ZM177.084 187.5C171.558 187.5 166.259 189.695 162.352 193.602C158.445 197.509 156.25 202.808 156.25 208.333C156.25 213.859 158.445 219.158 162.352 223.065C166.259 226.972 171.558 229.167 177.084 229.167C182.609 229.167 187.908 226.972 191.815 223.065C195.722 219.158 197.917 213.859 197.917 208.333C197.917 202.808 195.722 197.509 191.815 193.602C187.908 189.695 182.609 187.5 177.084 187.5Z" fill="#402143"/>
</svg>
